<svg width="36" height="37" viewBox="0 0 36 37" fill="none" xmlns="http://www.w3.org/2000/svg">
<rect y="0.871582" width="36" height="36" rx="8" fill="white"/>
<path d="M9 12.2916C9 11.7144 9.20271 11.2382 9.60811 10.8631C10.0135 10.4879 10.5405 10.3003 11.1892 10.3003C11.8263 10.3003 12.3417 10.485 12.7355 10.8544C13.1409 11.2354 13.3436 11.7317 13.3436 12.3436C13.3436 12.8977 13.1467 13.3594 12.7529 13.7289C12.3475 14.1098 11.8147 14.3003 11.1544 14.3003H11.1371C10.5 14.3003 9.98456 14.1098 9.59073 13.7289C9.19691 13.3479 9 12.8688 9 12.2916ZM9.22587 27.4431V15.876H13.083V27.4431H9.22587ZM15.2201 27.4431H19.0772V20.9843C19.0772 20.5802 19.1236 20.2685 19.2162 20.0492C19.3784 19.6567 19.6245 19.3248 19.9546 19.0535C20.2847 18.7822 20.6988 18.6466 21.1969 18.6466C22.4942 18.6466 23.1429 19.5182 23.1429 21.2613V27.4431H27V20.8111C27 19.1026 26.5946 17.8068 25.7838 16.9237C24.973 16.0406 23.9015 15.599 22.5695 15.599C21.0753 15.599 19.9112 16.2397 19.0772 17.5211V17.5557H19.0598L19.0772 17.5211V15.876H15.2201C15.2432 16.2455 15.2548 17.3941 15.2548 19.3219C15.2548 21.2498 15.2432 23.9568 15.2201 27.4431Z" fill="#6045E2"/>
</svg>
