<svg width="36" height="37" viewBox="0 0 36 37" fill="none" xmlns="http://www.w3.org/2000/svg">
<rect y="0.871582" width="36" height="36" rx="8" fill="white"/>
<path d="M21.0271 11.5731V11.5698H21.8711L22.1794 11.6314C22.385 11.6714 22.5717 11.7238 22.7394 11.7886C22.9071 11.8535 23.0694 11.9291 23.2263 12.0156C23.3832 12.102 23.5255 12.1901 23.6532 12.2798C23.7798 12.3684 23.8934 12.4624 23.9941 12.5618C24.0936 12.6623 24.2489 12.6882 24.4599 12.6396C24.6709 12.591 24.8981 12.5234 25.1416 12.437C25.385 12.3505 25.6258 12.2533 25.8638 12.1452C26.1019 12.0372 26.2469 11.9686 26.2988 11.9394C26.3497 11.9091 26.3768 11.8929 26.38 11.8908L26.3832 11.8859L26.3995 11.8778L26.4157 11.8697L26.4319 11.8616L26.4482 11.8535L26.4514 11.8486L26.4563 11.8454L26.4612 11.8421L26.4644 11.8373L26.4806 11.8324L26.4968 11.8292L26.4936 11.8535L26.4887 11.8778L26.4806 11.9021L26.4725 11.9264L26.4644 11.9426L26.4563 11.9588L26.4482 11.9831C26.4427 11.9993 26.4373 12.021 26.4319 12.048C26.4265 12.075 26.3751 12.183 26.2777 12.3721C26.1803 12.5612 26.0586 12.753 25.9125 12.9475C25.7665 13.142 25.6355 13.289 25.5198 13.3884C25.4029 13.4889 25.3255 13.5591 25.2876 13.5991C25.2498 13.6402 25.2038 13.678 25.1497 13.7126L25.0685 13.7661L25.0523 13.7742L25.0361 13.7823L25.0328 13.7871L25.028 13.7904L25.0231 13.7936L25.0198 13.7985L25.0036 13.8066L24.9874 13.8147L24.9841 13.8196L24.9793 13.8228L24.9744 13.826L24.9711 13.8309L24.9679 13.8358L24.963 13.839L24.9582 13.8422L24.9549 13.8471H25.0361L25.4905 13.7499C25.7935 13.685 26.083 13.6067 26.3589 13.5148L26.7971 13.369L26.8458 13.3527L26.8702 13.3446L26.8864 13.3365L26.9026 13.3284L26.9188 13.3203L26.9351 13.3122L26.9675 13.3074L27 13.3041V13.3365L26.9919 13.3398L26.9838 13.3446L26.9805 13.3495L26.9757 13.3527L26.9708 13.356L26.9675 13.3609L26.9643 13.3657L26.9594 13.369L26.9546 13.3722L26.9513 13.3771L26.9481 13.3819L26.9432 13.3852L26.9351 13.4014L26.927 13.4176L26.9221 13.4208C26.9199 13.4241 26.8512 13.5159 26.716 13.6964C26.5807 13.8779 26.5077 13.9697 26.4968 13.9719C26.486 13.9752 26.4709 13.9914 26.4514 14.0205C26.433 14.0508 26.3183 14.1713 26.1073 14.382C25.8963 14.5927 25.6897 14.7802 25.4873 14.9444C25.2839 15.1097 25.1811 15.3129 25.1789 15.5539C25.1757 15.7937 25.1632 16.065 25.1416 16.3675C25.1199 16.6701 25.0794 16.9969 25.0198 17.3481C24.9603 17.6993 24.8684 18.0964 24.7439 18.5394C24.6195 18.9825 24.468 19.4147 24.2894 19.8361C24.1109 20.2575 23.9243 20.6357 23.7295 20.9707C23.5347 21.3057 23.3562 21.5893 23.1939 21.8216C23.0316 22.054 22.8666 22.2728 22.6988 22.4781C22.5311 22.6834 22.319 22.9146 22.0626 23.1718C21.8051 23.4279 21.6644 23.5684 21.6406 23.5932C21.6157 23.617 21.5097 23.7056 21.3225 23.859C21.1363 24.0136 20.9362 24.1681 20.7219 24.3226C20.5088 24.476 20.3129 24.6041 20.1344 24.7067C19.9558 24.8094 19.7405 24.9266 19.4884 25.0585C19.2373 25.1914 18.9657 25.3146 18.6736 25.428C18.3814 25.5415 18.073 25.6468 17.7484 25.7441C17.4238 25.8413 17.11 25.917 16.807 25.971C16.5041 26.025 16.1605 26.071 15.7764 26.1088L15.2002 26.1655V26.1736H14.1452V26.1655L14.0072 26.1574C13.9152 26.152 13.8395 26.1466 13.78 26.1412C13.7205 26.1358 13.4959 26.1061 13.1064 26.052C12.7169 25.998 12.4112 25.944 12.1894 25.89C11.9675 25.8359 11.6375 25.7333 11.1993 25.582C10.761 25.4307 10.3861 25.2778 10.0745 25.1233C9.76394 24.9699 9.56917 24.8726 9.49017 24.8315C9.41226 24.7916 9.32462 24.7419 9.22723 24.6824L9.08115 24.5933L9.07792 24.5884L9.07304 24.5852L9.06817 24.5819L9.06492 24.5771L9.04869 24.569L9.03246 24.5609L9.02923 24.556L9.02435 24.5528L9.01948 24.5495L9.01623 24.5447L9.013 24.5398L9.00812 24.5366H9V24.5041L9.01623 24.5074L9.03246 24.5122L9.1055 24.5203C9.15419 24.5257 9.28675 24.5338 9.50316 24.5447C9.71958 24.5555 9.9495 24.5555 10.193 24.5447C10.4364 24.5338 10.6853 24.5095 10.9396 24.4717C11.1939 24.4339 11.4941 24.3691 11.8404 24.2772C12.1867 24.1854 12.5048 24.0762 12.7948 23.9498C13.0837 23.8223 13.2893 23.7272 13.4116 23.6645C13.5327 23.6029 13.7178 23.4884 13.9666 23.3209L14.3399 23.0697L14.3432 23.0648L14.3481 23.0616L14.3529 23.0583L14.3562 23.0535L14.3594 23.0486L14.3643 23.0454L14.3692 23.0421L14.3724 23.0373L14.3886 23.0324L14.4049 23.0292L14.4081 23.013L14.413 22.9968L14.4179 22.9935L14.4211 22.9886L14.2913 22.9805C14.2047 22.9751 14.1208 22.9697 14.0397 22.9643C13.9585 22.9589 13.8314 22.9346 13.6583 22.8914C13.4851 22.8482 13.2985 22.7833 13.0983 22.6969C12.8981 22.6105 12.7033 22.5078 12.514 22.3889C12.3246 22.2701 12.1877 22.1712 12.1033 22.0923C12.02 22.0145 11.9118 21.9043 11.7787 21.7617C11.6467 21.618 11.532 21.4705 11.4346 21.3192C11.3372 21.1679 11.2442 20.9934 11.1555 20.7957L11.0207 20.5007L11.0126 20.4763L11.0045 20.452L10.9996 20.4358L10.9964 20.4196L11.0207 20.4229L11.0451 20.4277L11.2236 20.452C11.3427 20.4682 11.5293 20.4736 11.7836 20.4682C12.0379 20.4628 12.2137 20.452 12.3111 20.4358C12.4085 20.4196 12.468 20.4088 12.4896 20.4034L12.5221 20.3953L12.5627 20.3872L12.6032 20.3791L12.6065 20.3742L12.6114 20.371L12.6162 20.3677L12.6195 20.3629L12.587 20.3548L12.5546 20.3467L12.5221 20.3386L12.4896 20.3305L12.4572 20.3224C12.4355 20.317 12.3977 20.3062 12.3436 20.2899C12.2895 20.2737 12.1434 20.2143 11.9053 20.1117C11.6673 20.009 11.4779 19.909 11.3372 19.8118C11.1962 19.7143 11.0618 19.6076 10.9347 19.4925C10.8081 19.3758 10.6691 19.2256 10.5176 19.0419C10.3661 18.8582 10.2308 18.6448 10.1118 18.4017C9.99279 18.1585 9.90352 17.9262 9.844 17.7047C9.78472 17.4845 9.74561 17.2593 9.72716 17.0321L9.69793 16.6917L9.71416 16.6949L9.73039 16.6998L9.74662 16.7079L9.76285 16.716L9.77908 16.7241L9.79531 16.7322L10.0469 16.8457C10.2146 16.9213 10.4229 16.9861 10.6718 17.0402C10.9207 17.0942 11.0694 17.1239 11.1181 17.1293L11.1912 17.1374H11.3372L11.334 17.1326L11.3291 17.1293L11.3243 17.1261L11.321 17.1212L11.3178 17.1163L11.3129 17.1131L11.308 17.1099L11.3048 17.105L11.2885 17.0969L11.2723 17.0888L11.2691 17.0839L11.2642 17.0807L11.2593 17.0774L11.2561 17.0726L11.2399 17.0645L11.2236 17.0564L11.2204 17.0515C11.2171 17.0493 11.1706 17.0148 11.0808 16.9478C10.9921 16.8797 10.899 16.7916 10.8016 16.6836C10.7042 16.5755 10.6069 16.4621 10.5095 16.3432C10.4119 16.2241 10.325 16.0966 10.2498 15.9623C10.174 15.8272 10.094 15.6554 10.0096 15.4469C9.92625 15.2394 9.86294 15.0303 9.81966 14.8196C9.77639 14.6089 9.75204 14.4009 9.74662 14.1956C9.74121 13.9903 9.74662 13.8147 9.76285 13.6688C9.77908 13.5229 9.81154 13.3581 9.86023 13.1745C9.90893 12.9908 9.97927 12.7963 10.0712 12.591L10.2092 12.283L10.2173 12.2587L10.2254 12.2344L10.2303 12.2311L10.2335 12.2263L10.2368 12.2214L10.2417 12.2182L10.2465 12.2214L10.2498 12.2263L10.253 12.2311L10.2579 12.2344L10.2628 12.2376L10.266 12.2425L10.2693 12.2473L10.2741 12.2506L10.2822 12.2668L10.2904 12.283L10.2952 12.2862L10.2985 12.2911L10.5176 12.5342C10.6637 12.6963 10.8368 12.8773 11.037 13.0772C11.2372 13.2771 11.3481 13.3808 11.3697 13.3884C11.3914 13.397 11.4184 13.4219 11.4509 13.463C11.4833 13.503 11.5915 13.5986 11.7755 13.7499C11.9594 13.9011 12.2002 14.0767 12.4977 14.2766C12.7953 14.4765 13.1253 14.6737 13.4878 14.8682C13.8503 15.0627 14.2399 15.2383 14.6564 15.395C15.073 15.5517 15.3652 15.6543 15.5329 15.703C15.7006 15.7516 15.9874 15.8137 16.3931 15.8894C16.7989 15.965 17.1046 16.0136 17.3102 16.0352C17.5158 16.0568 17.6565 16.0693 17.7322 16.0725L17.8458 16.0758L17.8426 16.0514L17.8377 16.0271L17.8052 15.8245C17.7836 15.6895 17.7728 15.5004 17.7728 15.2572C17.7728 15.0141 17.7917 14.7899 17.8296 14.5846C17.8675 14.3793 17.9243 14.1713 18 13.9606C18.0757 13.7499 18.1499 13.5807 18.2224 13.4532C18.296 13.3268 18.3923 13.1826 18.5113 13.0205C18.6303 12.8584 18.7845 12.6909 18.9739 12.518C19.1632 12.3451 19.3796 12.1911 19.6231 12.0561C19.8665 11.921 20.0911 11.8183 20.2967 11.7481C20.5023 11.6779 20.6754 11.632 20.8161 11.6103C20.9567 11.5887 21.0271 11.5763 21.0271 11.5731Z" fill="#6045E2"/>
</svg>
