<svg width="36" height="37" viewBox="0 0 36 37" fill="none" xmlns="http://www.w3.org/2000/svg">
<rect y="0.871582" width="36" height="36" rx="8" fill="white"/>
<path fill-rule="evenodd" clip-rule="evenodd" d="M9 18.8716C9 15.2764 9 13.4789 9.85669 12.1841C10.2392 11.606 10.7344 11.1108 11.3126 10.7283C12.6073 9.87158 14.4049 9.87158 18 9.87158C21.5951 9.87158 23.3927 9.87158 24.6874 10.7283C25.2656 11.1108 25.7608 11.606 26.1433 12.1841C27 13.4789 27 15.2764 27 18.8716C27 22.4667 27 24.2643 26.1433 25.559C25.7608 26.1372 25.2656 26.6323 24.6874 27.0149C23.3927 27.8716 21.5951 27.8716 18 27.8716C14.4049 27.8716 12.6073 27.8716 11.3126 27.0149C10.7344 26.6323 10.2392 26.1372 9.85669 25.559C9 24.2643 9 22.4667 9 18.8716ZM22.6593 18.8718C22.6593 21.4451 20.5732 23.5312 17.9998 23.5312C15.4265 23.5312 13.3404 21.4451 13.3404 18.8718C13.3404 16.2985 15.4265 14.2124 17.9998 14.2124C20.5732 14.2124 22.6593 16.2985 22.6593 18.8718ZM17.9998 21.9548C19.7025 21.9548 21.0828 20.5745 21.0828 18.8718C21.0828 17.1691 19.7025 15.7888 17.9998 15.7888C16.2971 15.7888 14.9168 17.1691 14.9168 18.8718C14.9168 20.5745 16.2971 21.9548 17.9998 21.9548ZM22.8433 15.0731C23.4479 15.0731 23.9381 14.583 23.9381 13.9783C23.9381 13.3737 23.4479 12.8835 22.8433 12.8835C22.2386 12.8835 21.7485 13.3737 21.7485 13.9783C21.7485 14.583 22.2386 15.0731 22.8433 15.0731Z" fill="#6045E2"/>
</svg>
