<svg width="36" height="37" viewBox="0 0 36 37" fill="none" xmlns="http://www.w3.org/2000/svg">
<rect y="0.871582" width="36" height="36" rx="8" fill="white"/>
<path d="M18.4383 25.8513L14.3761 25.7753C13.0608 25.7489 11.7423 25.8017 10.4528 25.5276C8.49128 25.1181 8.35232 23.1102 8.20691 21.426C8.00654 19.0581 8.08411 16.6473 8.46222 14.2992C8.67567 12.9817 9.51571 12.1955 10.8148 12.11C15.2001 11.7995 19.6146 11.8363 23.9903 11.9812C24.4524 11.9944 24.9177 12.067 25.3734 12.1496C27.6227 12.5525 27.6775 14.8279 27.8233 16.7434C27.9688 18.6786 27.9074 20.6238 27.6294 22.5458C27.4065 24.1372 26.9798 25.4718 25.1795 25.6006C22.9237 25.7691 20.7197 25.9047 18.4576 25.8615C18.4577 25.8513 18.4447 25.8513 18.4383 25.8513ZM16.0501 21.8223C17.75 20.8249 19.4175 19.8441 21.1076 18.8534C19.4046 17.856 17.7403 16.8752 16.0501 15.8844V21.8223Z" fill="#6045E2"/>
</svg>
